<svg id="Warstwa_1" data-name="Warstwa 1" xmlns="http://www.w3.org/2000/svg" viewBox="0 0 500.48 489.54"><defs><style>.cls-1,.cls-2{fill:#fff;}.cls-2{font-size:150.74px;stroke:#fff;stroke-miterlimit:10;stroke-width:1.16px;font-family:Roboto-Black, Roboto;font-weight:800;}</style></defs><path class="cls-1" d="M289.46,78.13A155.05,155.05,0,0,0,6,197.72q1.86,6.66,4.33,13.06l.39,1.07c1,2.5,2,5,3.12,7.43a.42.42,0,0,1,0,.12s0,0,0,0a155.74,155.74,0,0,0,8.5,16.19q2.43,4.06,5.14,8a155,155,0,0,0,262.35-10.93l0-.07c2.05-3.56,4-7.23,5.69-11a155.11,155.11,0,0,0-6.19-143.5Zm-134.16-32A109.7,109.7,0,0,1,255.75,199.79h0a108.25,108.25,0,0,1-12.43,21.4,109.62,109.62,0,0,1-177.06-1.47,109,109,0,0,1-20.58-63.93A109.63,109.63,0,0,1,155.3,46.16Z" transform="translate(95.48 -0.79)"/><path class="cls-1" d="M295.65,221.63,156.06,490.33Q85,354.81,13.86,219.28c.32,0,.64,0,1,0h.54q25.44.19,50.89.42a109.63,109.63,0,0,0,177.06,1.47l29.73.25h1.12Z" transform="translate(95.48 -0.79)"/><text class="cls-2" transform="translate(206.59 207.18)">$</text></svg>