<?xml version="1.0" encoding="utf-8"?>
<!-- Generator: Adobe Illustrator 26.0.0, SVG Export Plug-In . SVG Version: 6.00 Build 0)  -->
<svg version="1.1" id="Warstwa_1" xmlns="http://www.w3.org/2000/svg" xmlns:xlink="http://www.w3.org/1999/xlink" x="0px" y="0px"
	 viewBox="0 0 311 489.5" style="enable-background:new 0 0 311 489.5;" xml:space="preserve">
<style type="text/css">
	.st0{fill:#FFFFFF;}
	.st1{enable-background:new    ;}
	.st2{fill:#FFFFFF;stroke:#FFFFFF;stroke-width:1.16;stroke-miterlimit:10;}
</style>
<path class="st0" d="M290.3,77.3C247.4,3.2,152.5-22,78.4,20.9C17.2,56.3-12.3,128.8,6.8,196.9c1.2,4.4,2.7,8.8,4.3,13.1l0.4,1.1
	c1,2.5,2,5,3.1,7.4c0,0,0,0.1,0,0.1l0,0c2.5,5.6,5.4,11,8.5,16.2c1.6,2.7,3.3,5.4,5.1,8c48.5,70.6,145,88.4,215.5,40
	c19.2-13.2,35.2-30.6,46.8-50.9v-0.1c2-3.6,4-7.2,5.7-11c21.5-46,19.2-99.6-6.2-143.5L290.3,77.3z M156.1,45.3
	c60.6,0,109.7,49.2,109.6,109.8c0,15.1-3.1,30.1-9.2,43.9l0,0c-3.3,7.6-7.5,14.8-12.4,21.4C208,269,139.4,279.1,90.8,243
	c-9.1-6.8-17.1-14.9-23.7-24.1c-13.4-18.6-20.6-41-20.6-63.9C46.5,94.5,95.6,45.4,156.1,45.3L156.1,45.3z"/>
<path class="st0" d="M296.5,220.8L156.9,489.5c-47.4-90.3-94.8-180.7-142.2-271c0.3,0,0.6,0,1,0h0.5c17,0.1,33.9,0.3,50.9,0.4
	c35.3,49.2,103.8,60.4,153,25.1c9.2-6.6,17.3-14.6,24.1-23.7l29.7,0.2h1.1L296.5,220.8z"/>
<g class="st1">
	<path class="st2" d="M171.2,181c0-4-1.1-7.2-3.3-9.6c-2.2-2.4-6-4.6-11.4-6.6c-5.3-2-10-4-13.8-6c-3.9-2-7.2-4.3-10-6.8
		c-2.8-2.6-4.9-5.6-6.5-9.1c-1.5-3.5-2.3-7.6-2.3-12.4c0-8.3,2.6-15.1,7.9-20.4c5.3-5.3,12.3-8.4,21.1-9.3V85h11.8v16
		c8.7,1.2,15.5,4.8,20.4,10.9c4.9,6,7.4,13.8,7.4,23.4h-21.3c0-5.9-1.2-10.3-3.6-13.2c-2.4-2.9-5.7-4.4-9.8-4.4
		c-4,0-7.1,1.1-9.3,3.4c-2.2,2.3-3.3,5.4-3.3,9.5c0,3.7,1.1,6.7,3.2,9c2.2,2.3,6.2,4.6,12,6.9c5.9,2.4,10.7,4.6,14.5,6.7
		c3.8,2.1,7,4.4,9.6,7.1c2.6,2.6,4.6,5.6,6,9c1.4,3.4,2.1,7.3,2.1,11.7c0,8.3-2.6,15.1-7.8,20.3s-12.4,8.3-21.5,9.2V225h-11.7v-14.6
		c-10.1-1.1-17.8-4.6-23.4-10.7c-5.5-6.1-8.3-14.1-8.3-24.2h21.3c0,5.8,1.4,10.3,4.2,13.4c2.8,3.1,6.8,4.7,12,4.7
		c4.3,0,7.7-1.1,10.2-3.4C169.9,187.9,171.2,184.9,171.2,181z"/>
</g>
</svg>
