<?xml version="1.0" encoding="utf-8"?>
<!-- Generator: Adobe Illustrator 26.0.0, SVG Export Plug-In . SVG Version: 6.00 Build 0)  -->
<svg version="1.1" id="Warstwa_1" xmlns="http://www.w3.org/2000/svg" xmlns:xlink="http://www.w3.org/1999/xlink" x="0px" y="0px"
	 viewBox="0 0 445.8 338.5" style="enable-background:new 0 0 445.8 338.5;" xml:space="preserve">
<style type="text/css">
	.st0{fill:#FFFFFF;}
</style>
<g transform="translate(0.000000,600.000000) scale(0.100000,-0.100000)">
	<path class="st0" d="M3303,5991.4c-15-8-18-25-18-104c0-64,4-96,13-102c6-4,69-10,138-13l126-5l-154-219l-153-218v-93
		c0-52,3-96,8-98c4-3,150-6,325-8c274-4,319-2,327,11c15,23,13,187-2,197c-7,4-85,10-174,13l-161,5l159,224l158,223v82
		c0,44-5,88-10,96c-8,13-53,15-287,17C3418,6001.4,3314,5998.4,3303,5991.4z"/>
	<path class="st0" d="M45,4723.4c-5-11-10-65-10-121s5-110,10-121c10-18,23-19,180-19c94,0,170-3,170-6s-89-132-197-287l-198-282
		v-118c0-94,3-120,15-127c24-15,813-13,828,2c8,8,12,51,12,128s-4,120-12,128c-9,9-72,12-220,12c-114,0-208,3-208,6s80,119,177,258
		c97,138,187,266,200,285c21,30,23,45,23,145c0,74-4,116-12,124c-9,9-107,12-380,12C70,4742.4,55,4741.4,45,4723.4z"/>
	<path class="st0" d="M926,4733.4c-7-5-13-19-13-32c0-33,262-1041,275-1056c14-18,330-18,345,0c8,9,115,377,160,547
		c6,22,11,29,15,20c3-8,28-132,57-275s58-270,66-282c14-22,19-23,178-23c125,0,166,3,175,14c14,17,291,1022,291,1057
		c0,15-7,30-16,33s-69,6-134,6c-92,0-120-3-130-15c-11-13-97-352-145-568c-10-43-20-76-23-73c-2,3-31,135-63,292
		c-65,318-73,350-95,358c-22,9-267,7-280-2c-20-13-31-46-109-344c-69-260-95-334-95-268c0,40-142,586-157,602c-14,16-34,18-152,18
		C1001,4742.4,934,4738.4,926,4733.4z"/>
	<path class="st0" d="M2747,4386.4c-20-14-22-24-22-98c0-50,5-87,12-94c9-9,211-12,849-12c748,0,839,2,853,16c12,11,16,36,16,90
		c0,127,95,114-863,114C2864,4402.4,2767,4400.4,2747,4386.4z"/>
	<path class="st0" d="M3438,3685.4c-9-3-13-30-13-86c0-119-2-123-63-131c-28-4-55-13-59-19c-13-20-9-152,4-165c7-7,33-12,59-12h47
		l4-237c3-201,7-245,22-280c24-56,73-98,138-118c63-19,267-31,287-16c10,6,16,36,19,93c5,110-2,119-97,127c-55,5-77,12-87,26
		c-11,14-14,63-14,212v192l88,3l87,3l9,63c5,38,5,79,0,100l-9,37l-87,3l-88,3v92c0,59-4,97-12,105
		C3661,3692.4,3465,3696.4,3438,3685.4z"/>
</g>
</svg>
