<svg id="Warstwa_1" data-name="Warstwa 1" xmlns="http://www.w3.org/2000/svg" viewBox="0 0 621.9 969"><defs><style>.cls-1,.cls-2{fill:none;stroke:#000;stroke-linecap:round;stroke-linejoin:round;stroke-width:19px;}.cls-2{stroke-dasharray:30.11 30.11;}</style></defs><path class="cls-1" d="M381.65,960.49q7.64-.16,15-.53" transform="translate(-1.77 -0.99)"/><path class="cls-2" d="M426.66,957.6a471.26,471.26,0,0,0,110-25.11c33.35-12,76.39-28.28,77.5-52.5.27-5.91-1.54-21.27-37-42-89.43-52.28-197.53-24.51-357.5-34.5-74.14-4.63-193-12.08-207-62-7.76-27.6,19.65-56.58,22-59,27.26-28.09,64.1-26.84,192-24,6.08.14,77.53,1.37,168.5-2.5,26.14-1.11,78.39-3.89,130.5-33.5,29.47-16.74,38.3-30.36,40-43,3.22-23.87-19-44.39-24-49-33.35-30.48-74.35-23.22-164-23-110.43.28-168-10.45-219-33C107,451.66,99,433,97.65,421.49c-3.32-29.14,32.06-54.7,38-59,22.71-16.4,36-13.36,89-27,58.44-15,87.91-23,100-47,9.1-18,7.47-41.83-2-59-14.74-26.74-39.36-20.79-91-54-29-18.62-50.76-33.08-56-58-3.24-15.43,1-29.28,9-55,2.83-9.14,5.92-17.46,9-24.91" transform="translate(-1.77 -0.99)"/><path class="cls-1" d="M199.81,23.84c2.43-5.08,4.76-9.54,6.84-13.35" transform="translate(-1.77 -0.99)"/></svg>