<svg id="Warstwa_1" data-name="Warstwa 1" xmlns="http://www.w3.org/2000/svg" viewBox="0 0 275.87 960.45"><defs><style>.cls-1,.cls-2{fill:none;stroke:#000;stroke-linecap:round;stroke-linejoin:round;stroke-width:15.44px;}.cls-2{stroke-dasharray:29.6 29.6;}</style></defs><path class="cls-1" d="M168.88,955a95.71,95.71,0,0,0,15-1" transform="translate(-3.85 -2.27)"/><path class="cls-2" d="M211.94,945.08A104.76,104.76,0,0,0,240.21,924c11.42-11.8,33.36-34.47,31.7-62-1.82-30.22-31-47.48-40.29-53-30.65-18.15-47-5.61-92.47-5-39.75.54-96.9,1.31-118.88-48-.71-1.58-13.65-31.48-6.61-58,5-18.78,18.62-30.65,48.22-41,74.28-26,104.9,8,149.93-29,7.77-6.39,32.08-25,31.7-52,0-.1,0-.2,0-.42-.31-14.92-.75-36.47-10-49.07-11.2-15.27-34.32-16-41-16A211.88,211.88,0,0,1,119.34,490c-24.84-12.18-73-36.62-76-74-2.55-32.12,29.92-65.45,34.35-70,8.85-9.09,18.74-16.21,33.77-34.49,6.88-8.36,13.13-16,18.41-25.51,12.94-23.39,14.94-48.76,13.21-64-5-43.8-40.77-46.79-56.14-92a156.62,156.62,0,0,1-7.56-31.35,162.8,162.8,0,0,1,3.82-60.5" transform="translate(-3.85 -2.27)"/><path class="cls-1" d="M87.46,24c1.82-5.31,3.71-10,5.46-14" transform="translate(-3.85 -2.27)"/></svg>