<?xml version="1.0" encoding="utf-8"?>
<!-- Generator: Adobe Illustrator 16.0.0, SVG Export Plug-In . SVG Version: 6.00 Build 0)  -->
<!DOCTYPE svg PUBLIC "-//W3C//DTD SVG 1.1//EN" "http://www.w3.org/Graphics/SVG/1.1/DTD/svg11.dtd">
<svg version="1.1" id="Layer_1" xmlns="http://www.w3.org/2000/svg" xmlns:xlink="http://www.w3.org/1999/xlink" x="0px" y="0px"
	 width="113.387px" height="85.039px" viewBox="0 0 113.387 85.039" enable-background="new 0 0 113.387 85.039"
	 xml:space="preserve">
<g>
	<rect x="0.193" y="16.452" fill="#0084C2" width="113" height="52.135"/>
	<path fill="#FFFFFF" d="M94.779,43.22c0-2.273,1.783-4.217,4.222-4.217c2.441,0,4.218,1.943,4.218,4.217
		c0,2.265-1.782,4.207-4.218,4.207C96.561,47.427,94.779,45.484,94.779,43.22 M103.369,50.497l3.444-0.333V30.965l-3.643,0.438
		v5.903c-1.353-1.063-2.872-1.473-4.338-1.473c-4.16,0-7.204,3.526-7.204,7.387c0,3.851,3.041,7.386,7.204,7.386
		c2.012,0,3.017-0.498,4.536-1.946V50.497z M85.944,35.942l-3.443,0.329v14.113l3.647-0.221V43.49c0-2.406,1.233-3.967,4.02-3.967
		l1.263-3.69c-2.522,0.027-4.162,0.464-5.427,2.627h-0.055v-2.518H85.944z M32.686,50.385l3.647-0.221V43.08h0.058l6.146,7.305
		l3.618-1.04l-5.746-6.454v-0.304l5.487-5.714l-3.245-1.396l-6.318,7.11V30.965l-3.647,0.439V50.385L32.686,50.385z M19.364,43.576
		c-0.058-0.331-0.058-0.631-0.058-0.933c0.204-2.135,2.041-3.913,4.337-3.913c0.975,0,1.866,0.246,2.556,0.904L19.364,43.576z
		 M28.409,45.788c-1.521,0.955-2.898,1.639-4.766,1.639c-1.75,0-2.558-0.819-2.844-1.393l9.991-5.908
		c-1.292-2.569-3.933-4.294-6.946-4.294c-4.308,0-8.095,3.198-8.095,7.387c0,4.18,3.79,7.383,8.095,7.383
		c2.153,0,4.334-0.662,6.115-1.838L28.409,45.788z M10.323,35.942l-3.443,0.329v14.113l3.646-0.221V43.49
		c0-2.406,1.234-3.967,4.017-3.967l1.267-3.69c-2.53,0.027-4.165,0.464-5.428,2.627h-0.058V35.942L10.323,35.942z"/>
	<path fill="#EFC716" d="M66.705,41.938c0.207,0.839-0.376,1.419-0.999,1.952c-1.093,0.95-2.442,2.102-4.008,1.508
		c-1.397-0.355-1.972-1.765-2.134-3.053c0.086-0.399-0.051-0.964,0.268-1.292c0.848-1.332,2.771-1.026,3.906-1.922
		c0.163-0.169,0.136-0.397,0.248-0.571C65.885,38.638,65.82,40.767,66.705,41.938 M69.435,43.723
		c0.033-0.36,0.575-0.994,0.328-1.423c-0.721-0.887-0.939-2.037-1.262-3.151c-0.695-1.698-2.727-2.83-4.628-2.865
		c-0.816,0.066-1.745,0.3-2.104,1.037c-1.397,0.199-2.729,0.622-3.727,1.576c-1.573,1.45-1.474,3.864-0.754,5.742
		c0.461,1.628,2.082,3.136,3.92,3.343c3.344,0.39,6.043-1.415,7.949-3.835L69.435,43.723z"/>
	<path fill="#EFC716" d="M56.428,49.059L56.3,48.911l-2.07,2.13c-0.52,0.5-0.764,1.023-1.324,1.384
		c-0.183-0.109-0.304,0.152-0.483,0.044c-0.062,0.18-0.305,0.156-0.4,0.192c0,0,0.005-0.048,0.053-0.039
		c0,0,0.005-0.041-0.042-0.053l-0.146,0.036c0.046,0.005,0.054-0.087-0.038-0.094l-0.104,0.126c0.002-0.044-0.087-0.096-0.139-0.055
		l-0.051,0.039c-0.081-0.146-0.39,0.098-0.52-0.051c-0.047-0.005-0.09-0.052-0.1,0.039c-0.036-0.096-0.231-0.063-0.32-0.12
		l-0.276-0.113c0.042,0.045,0.046,0.003,0.052-0.039l-0.046-0.049l-0.055,0.088c-2.322-1.12-0.588-3.236,0.353-4.56
		c-0.006,0.043-0.011,0.087,0.033,0.14c1.131-0.854,2.3-1.613,3.626-1.994c0.05-0.042,0.152-0.118,0.066-0.177l1.979,3.129
		L56.428,49.059z"/>
	<path fill="#EFC716" d="M62.061,49.996c0.438-0.098,0.954-0.007,1.253,0.381c0.438,0.86,0.191,1.925,0.334,2.894
		c0.125,0.695-0.133,1.352-0.747,1.795c-0.626,0.58-1.647,0.31-2.529,0.503c-0.521-0.047-1.001-0.452-1.198-0.922
		c-0.13-0.604-0.387-1.349,0.049-1.947c0.436-1.008,0.324-2.786,1.988-2.778C61.439,50.031,61.775,49.97,62.061,49.996"/>
	<path fill="#EFC716" d="M53.668,43.183c0.148,0.424,0.054,0.912-0.451,1.227c-1.096,0.496-2.509,0.322-3.824,0.57
		c-0.922,0.191-1.856,0.018-2.42-0.576c-0.804-0.523-0.564-1.547-0.818-2.342c0.045-0.497,0.52-0.956,1.117-1.219
		c0.828-0.151,1.864-0.51,2.631-0.084c1.403,0.264,3.718,0.013,3.799,1.608C53.584,42.586,53.697,42.87,53.668,43.183"/>
	<path fill="#EFC716" d="M69.553,48.15c0.473,0.495,0.251,1.333,0.87,1.803c0.644,0.734,1.629,1.369,1.428,2.437
		c-0.246,0.619-0.943,0.873-1.273,1.39c-0.463,0.276-1.014,0.592-1.617,0.446c-0.885-0.218-1.328-1.029-1.74-1.699l-1.041-1.999
		c-0.24-0.476-0.501-1.226-0.168-1.691c0.385-0.559,1.019-0.686,1.66-0.9c0.021-0.229,0.189-0.486,0.439-0.601
		C68.787,47.215,69.166,47.707,69.553,48.15"/>
	<path fill="#EFC716" d="M70.444,43.783c-0.021,0.676,0.319,1.12,0.8,1.521c1.76,0.069,3.443,0.854,5.214,1.282
		c1.414,0.169,2.98,0.218,4.268-0.714c0.424-0.414,0.522-0.996,0.432-1.502c-0.079-1.144-0.956-1.901-1.877-2.26
		c-1.837-0.206-3.391-0.386-5.442-0.344C72.355,41.729,71.172,41.713,70.444,43.783"/>
	<path fill="#EFC716" d="M73.195,38.294c0.433-0.008,0.717-0.029,1.204-0.12c0.194-0.032,0.381,0.033,0.633-0.127
		c0.038,0.052,1.048-0.5,1.351-0.652c1.202-0.571,2.015-1.136,2.472-2.366c0.276-0.885-0.266-1.657-0.824-2.298
		c-0.512-1.09-2.081-1.139-2.915-0.394c-1.282,1.427-2.804,2.836-4.585,3.496c-0.53,0.543-0.929,1.189-0.999,1.909
		c0.068,0.275,0.146,0.466,0.371,0.622C70.957,38.776,72.176,38.479,73.195,38.294"/>
	<path fill="#EFC716" d="M54.908,36.348c-0.157-0.33-0.325-0.571-0.672-0.969c-0.124-0.147-0.156-0.329-0.383-0.443
		c0.004-0.043-0.932-0.674-1.254-0.836c-1.071-0.732-1.982-1.177-3.333-0.979c-0.923,0.19-1.428,0.961-1.743,1.752
		c-0.803,0.927-0.085,2.309,0.982,2.635c1.91,0.439,3.901,1.067,5.403,2.244c0.749,0.158,1.5,0.224,2.248-0.074
		c0.207-0.159,0.316-0.334,0.345-0.601C56.411,38.021,55.594,37.138,54.908,36.348"/>
	<path fill="#EFC716" d="M56.878,27.443c0.672-0.079,1.389-0.104,1.973,0.31c0.852,0.986,1.112,2.274,1.365,3.567
		c0.125,1.604,0.352,3.212,0.779,4.704c0.028,0.229-0.131,0.354-0.283,0.475c-0.721,0.029-1.482,0.506-2.156,0.081
		c-1.13-0.6-1.684-1.736-2.258-2.742c-0.514-1.046-0.426-2.441-1.494-3.216c-0.146-0.924-0.618-1.968-0.157-2.787
		C55.219,27.295,56.114,27.422,56.878,27.443"/>
	<path fill="#EFC716" d="M70.023,25.065c0.614,0.552,0.614,1.507,0.355,2.213c-0.605,1.304-1.529,2.495-1.622,3.941
		c-0.362,1.238-0.351,2.602-1.312,3.652c-0.563,0.402-1.423,0.419-2.061,0.134c-1.095-0.551-1.536-1.813-1.431-2.941
		c0.207-0.662,0.557-1.266,0.619-1.942c0.251-1.116,0.225-2.298,0.059-3.539c0.037-0.402-0.002-0.95,0.408-1.234
		c0.213-0.206,0.455-0.272,0.794-0.336c0.102-0.082,0.382-0.015,0.441-0.145C67.594,24.531,69.025,24.021,70.023,25.065"/>
	<path fill="#FFFFFF" d="M12.616,64.572c-0.611,0-1.091-0.274-1.445-0.821c-0.354-0.549-0.531-1.305-0.531-2.265
		c0-0.962,0.177-1.721,0.531-2.265c0.354-0.552,0.841-0.826,1.463-0.826c0.618,0,1.1,0.269,1.453,0.819
		c0.351,0.549,0.527,1.302,0.527,2.271c0,0.971-0.177,1.737-0.527,2.273C13.733,64.302,13.245,64.572,12.616,64.572z M11.184,61.494
		c0,0.812,0.127,1.446,0.382,1.906c0.257,0.456,0.612,0.687,1.066,0.687c0.469,0,0.829-0.223,1.073-0.663
		c0.245-0.442,0.367-1.091,0.367-1.947c0-0.846-0.125-1.492-0.373-1.932c-0.25-0.443-0.611-0.67-1.085-0.67
		c-0.447,0-0.798,0.23-1.054,0.693C11.311,60.038,11.184,60.678,11.184,61.494z"/>
	<path fill="#FFFFFF" d="M16.616,61.137c0.157-0.101,0.313-0.18,0.472-0.228c0.154-0.05,0.317-0.075,0.479-0.075
		c0.511,0,0.927,0.17,1.251,0.51c0.323,0.341,0.484,0.783,0.484,1.326c0,0.563-0.184,1.022-0.548,1.376
		c-0.366,0.355-0.837,0.532-1.415,0.532c-0.553,0-0.995-0.162-1.324-0.496c-0.326-0.328-0.493-0.773-0.493-1.329
		c0-0.326,0.072-0.657,0.211-0.997c0.146-0.337,0.461-0.847,0.956-1.533l1.389-1.94l0.441,0.271L16.616,61.137z M16.084,62.718
		c0,0.419,0.122,0.758,0.364,1.007c0.241,0.255,0.564,0.377,0.97,0.377c0.4,0,0.72-0.13,0.96-0.395
		c0.243-0.265,0.364-0.618,0.364-1.06c0-0.395-0.122-0.721-0.367-0.974c-0.244-0.252-0.559-0.378-0.948-0.378
		c-0.396,0-0.717,0.133-0.97,0.397C16.208,61.957,16.084,62.301,16.084,62.718z"/>
	<path fill="#FFFFFF" d="M20.611,64.069c0-0.116,0.041-0.213,0.119-0.295c0.081-0.085,0.179-0.118,0.295-0.118
		s0.214,0.033,0.295,0.118c0.082,0.082,0.119,0.179,0.119,0.295s-0.037,0.211-0.119,0.296c-0.081,0.083-0.179,0.118-0.295,0.118
		c-0.119,0-0.214-0.035-0.295-0.118C20.651,64.283,20.611,64.186,20.611,64.069z"/>
	<path fill="#FFFFFF" d="M7.64,64.416v-5.418H6.563l0.261-0.485h1.344v5.903H7.64L7.64,64.416z"/>
	<path fill="#FFFFFF" d="M26.345,63.947v0.469h-3.827l1.282-1.41c0.088-0.103,0.219-0.24,0.392-0.43
		c1.059-1.147,1.59-1.981,1.59-2.489c0-0.355-0.122-0.647-0.366-0.872c-0.241-0.221-0.56-0.336-0.949-0.336
		c-0.4,0-0.715,0.127-0.947,0.378c-0.233,0.251-0.349,0.593-0.349,1.031H22.64V60.23c0-0.565,0.168-1.016,0.505-1.347
		c0.338-0.322,0.797-0.491,1.379-0.491c0.557,0,1.006,0.151,1.341,0.456c0.334,0.3,0.501,0.704,0.501,1.205
		c0,0.635-0.469,1.451-1.406,2.452l-0.034,0.035l-1.311,1.402L26.345,63.947L26.345,63.947z"/>
	<path fill="#FFFFFF" d="M6.905,24.49c0.235-0.393,0.466-0.676,0.69-0.842c0.226-0.164,0.491-0.246,0.789-0.246
		c0.091,0,0.179,0.007,0.272,0.024c0.089,0.02,0.18,0.042,0.27,0.072l-0.207,0.599c-0.069-0.021-0.141-0.037-0.214-0.051
		c-0.071-0.013-0.145-0.022-0.213-0.022c-0.384,0-0.709,0.179-0.979,0.538c-0.271,0.359-0.408,0.803-0.408,1.338v2.255H6.268v-4.584
		h0.637V24.49L6.905,24.49z"/>
	<path fill="#FFFFFF" d="M12.991,28.158V27.32c-0.152,0.337-0.368,0.594-0.638,0.773c-0.276,0.176-0.597,0.264-0.971,0.264
		c-0.657,0-1.189-0.225-1.589-0.675c-0.401-0.454-0.604-1.05-0.604-1.79c0-0.732,0.199-1.332,0.596-1.795
		c0.396-0.465,0.909-0.695,1.534-0.695c0.391,0,0.729,0.085,1.01,0.256c0.284,0.17,0.505,0.42,0.662,0.751v-0.837h0.634v4.585
		L12.991,28.158L12.991,28.158z M9.899,25.914c0,0.592,0.133,1.048,0.4,1.368c0.266,0.323,0.65,0.482,1.145,0.482
		c0.487,0,0.862-0.176,1.142-0.525c0.276-0.35,0.414-0.831,0.414-1.447c0-0.56-0.139-1.001-0.413-1.324
		c-0.274-0.324-0.652-0.482-1.13-0.482c-0.48,0-0.86,0.173-1.138,0.517C10.04,24.843,9.899,25.315,9.899,25.914z"/>
	<path fill="#FFFFFF" d="M18.727,28.158V27.32c-0.15,0.34-0.365,0.6-0.635,0.775c-0.272,0.176-0.593,0.262-0.962,0.262
		c-0.658,0-1.187-0.225-1.59-0.675c-0.399-0.454-0.601-1.05-0.601-1.791c0-0.733,0.199-1.332,0.593-1.796
		c0.397-0.465,0.908-0.695,1.534-0.695c0.392,0,0.726,0.085,1.006,0.256c0.28,0.17,0.498,0.42,0.655,0.751v-4.262h0.644v8.012
		L18.727,28.158L18.727,28.158z M15.646,25.914c0,0.592,0.131,1.048,0.398,1.368c0.27,0.323,0.652,0.482,1.146,0.482
		c0.481,0,0.854-0.176,1.133-0.525c0.276-0.35,0.414-0.831,0.414-1.445c0-0.56-0.138-1.002-0.411-1.325
		c-0.268-0.323-0.645-0.483-1.122-0.483c-0.482,0-0.858,0.173-1.14,0.517C15.786,24.843,15.646,25.315,15.646,25.914z"/>
	<path fill="#FFFFFF" d="M20.939,21.784c0-0.134,0.048-0.249,0.145-0.342c0.097-0.096,0.214-0.145,0.348-0.145
		c0.132,0,0.25,0.047,0.349,0.145s0.148,0.208,0.148,0.342c0,0.14-0.049,0.256-0.146,0.347c-0.093,0.092-0.212,0.141-0.353,0.141
		c-0.138,0-0.253-0.046-0.35-0.141C20.987,22.038,20.939,21.922,20.939,21.784z M21.099,28.158v-4.585h0.656v4.585H21.099z"/>
	<path fill="#FFFFFF" d="M25.574,28.359c-0.324,0-0.639-0.064-0.939-0.192c-0.299-0.13-0.572-0.317-0.815-0.557
		c-0.232-0.226-0.407-0.49-0.529-0.787c-0.12-0.298-0.179-0.613-0.179-0.95c0-0.335,0.06-0.65,0.185-0.951
		c0.123-0.299,0.302-0.565,0.533-0.796c0.234-0.234,0.5-0.411,0.798-0.537c0.302-0.124,0.618-0.187,0.946-0.187
		c0.339,0,0.661,0.061,0.967,0.187c0.302,0.126,0.575,0.303,0.813,0.537c0.237,0.234,0.419,0.5,0.544,0.801
		c0.126,0.3,0.19,0.617,0.19,0.946s-0.063,0.646-0.188,0.942c-0.123,0.298-0.302,0.562-0.538,0.794
		c-0.242,0.239-0.516,0.426-0.823,0.556C26.232,28.294,25.907,28.359,25.574,28.359z M25.596,27.765c0.5,0,0.93-0.182,1.277-0.547
		c0.349-0.363,0.523-0.809,0.523-1.335c0-0.535-0.174-0.98-0.52-1.345c-0.349-0.363-0.776-0.544-1.281-0.544
		c-0.506,0-0.93,0.181-1.276,0.544c-0.351,0.361-0.524,0.809-0.524,1.345c0,0.526,0.177,0.972,0.524,1.335
		C24.666,27.583,25.091,27.765,25.596,27.765z"/>
	<path fill="#FFFFFF" d="M97.389,64.173v-5.959h2.952v0.506h-2.407v1.862h2.319v0.506h-2.319v3.081h-0.545V64.173L97.389,64.173z"/>
	<path fill="#FFFFFF" d="M104.283,64.401l-2.091-4.78l-0.451,4.552h-0.56l0.811-6.21l2.283,5.303l2.365-5.303l0.765,6.21h-0.559
		l-0.44-4.552L104.283,64.401z"/>
</g>
</svg>
