<?xml version="1.0" encoding="utf-8"?>
<!-- Generator: Adobe Illustrator 16.0.0, SVG Export Plug-In . SVG Version: 6.00 Build 0)  -->
<!DOCTYPE svg PUBLIC "-//W3C//DTD SVG 1.1//EN" "http://www.w3.org/Graphics/SVG/1.1/DTD/svg11.dtd">
<svg version="1.1" id="Layer_1" xmlns="http://www.w3.org/2000/svg" xmlns:xlink="http://www.w3.org/1999/xlink" x="0px" y="0px"
	 width="113.387px" height="85.039px" viewBox="0 0 113.387 85.039" enable-background="new 0 0 113.387 85.039"
	 xml:space="preserve">
<g>
	<path fill="#FFA500" d="M9.939,35.417c-0.354-0.288-0.757-0.501-1.205-0.646c-0.445-0.144-0.898-0.215-1.354-0.215
		c-0.438,0-0.851,0.078-1.24,0.229c-0.388,0.15-0.729,0.357-1.025,0.62c-0.295,0.263-0.531,0.571-0.709,0.93
		c-0.176,0.357-0.265,0.752-0.265,1.182c0,0.478,0.076,0.925,0.228,1.348c0.152,0.422,0.37,0.787,0.658,1.097
		c0.288,0.312,0.636,0.553,1.051,0.727c0.414,0.176,0.875,0.266,1.379,0.266c0.473,0,0.915-0.07,1.329-0.205
		c0.414-0.136,0.807-0.362,1.177-0.679l2.152,2.65c-0.254,0.27-0.578,0.5-0.974,0.69c-0.397,0.193-0.811,0.355-1.24,0.491
		c-0.43,0.137-0.87,0.235-1.317,0.298c-0.447,0.064-0.849,0.094-1.205,0.094c-1.113,0-2.119-0.177-3.011-0.527
		c-0.895-0.345-1.649-0.811-2.265-1.393c-0.617-0.58-1.088-1.252-1.417-2.018c-0.327-0.761-0.492-1.557-0.492-2.386
		c0-1.001,0.178-1.92,0.531-2.755c0.353-0.835,0.848-1.547,1.479-2.136c0.633-0.588,1.393-1.045,2.279-1.371
		c0.887-0.324,1.854-0.489,2.899-0.489c0.811,0,1.621,0.125,2.431,0.382c0.81,0.253,1.537,0.628,2.178,1.12L9.939,35.417z"/>
	<path fill="#FFA500" d="M19.555,44.292c-0.961,0-1.878-0.161-2.743-0.488c-0.872-0.323-1.639-0.781-2.305-1.359
		c-0.667-0.581-1.199-1.268-1.593-2.066c-0.396-0.794-0.594-1.669-0.594-2.623c0-0.958,0.198-1.831,0.594-2.627
		c0.396-0.794,0.927-1.481,1.593-2.064c0.666-0.581,1.435-1.034,2.305-1.362c0.866-0.325,1.783-0.488,2.743-0.488
		c0.964,0,1.882,0.162,2.76,0.488c0.877,0.325,1.65,0.781,2.316,1.362c0.668,0.58,1.199,1.269,1.596,2.064
		c0.395,0.796,0.595,1.671,0.595,2.627c0,0.955-0.2,1.829-0.595,2.623c-0.397,0.796-0.928,1.485-1.596,2.066
		c-0.665,0.58-1.438,1.035-2.316,1.359C21.439,44.132,20.52,44.292,19.555,44.292z M16.266,37.755c0,0.428,0.088,0.831,0.266,1.206
		c0.177,0.374,0.415,0.698,0.722,0.976c0.303,0.279,0.652,0.499,1.049,0.657c0.397,0.159,0.815,0.239,1.252,0.239
		c0.441,0,0.862-0.078,1.267-0.239c0.405-0.159,0.76-0.377,1.063-0.657c0.305-0.275,0.543-0.604,0.723-0.976
		c0.177-0.375,0.265-0.778,0.265-1.206c0-0.433-0.088-0.833-0.265-1.207c-0.178-0.375-0.418-0.701-0.723-0.979
		c-0.304-0.279-0.658-0.497-1.063-0.657c-0.404-0.158-0.826-0.24-1.267-0.24c-0.437,0-0.854,0.083-1.252,0.24
		c-0.397,0.16-0.746,0.378-1.049,0.657c-0.304,0.278-0.545,0.605-0.722,0.979C16.355,36.923,16.266,37.324,16.266,37.755z"/>
	<path fill="#1642B1" d="M39.1,40.573l-0.963,3.339H26.923l5.949-9.211h-4.937l0.787-3.102h10.2l-5.745,8.975L39.1,40.573
		L39.1,40.573z"/>
	<path fill="#1642B1" d="M41.555,31.765c0.508-0.175,1.094-0.311,1.759-0.407c0.667-0.093,1.269-0.142,1.812-0.142
		c0.808,0,1.546,0.083,2.214,0.25c0.667,0.168,1.24,0.421,1.723,0.763c0.481,0.342,0.855,0.786,1.125,1.325
		c0.269,0.542,0.406,1.195,0.406,1.959v8.21l-3.443,0.382v-1.217h-0.053c-0.386,0.558-0.855,0.933-1.404,1.122
		c-0.547,0.19-1.159,0.286-1.834,0.286c-0.741,0-1.39-0.107-1.949-0.322c-0.556-0.215-1.029-0.516-1.417-0.909
		c-0.389-0.389-0.68-0.859-0.875-1.407c-0.194-0.551-0.292-1.149-0.292-1.803c0-0.622,0.127-1.182,0.381-1.681
		c0.252-0.501,0.59-0.924,1.012-1.266c0.421-0.343,0.915-0.608,1.482-0.801c0.565-0.189,1.16-0.287,1.783-0.287
		c0.491,0,0.996,0.085,1.52,0.252c0.523,0.168,0.996,0.394,1.417,0.681c0.017-0.081,0.026-0.206,0.026-0.383
		c0-0.842-0.212-1.395-0.631-1.659c-0.422-0.262-1.057-0.394-1.9-0.394c-0.591,0-1.172,0.068-1.748,0.202
		c-0.574,0.137-1.129,0.315-1.669,0.539L41.555,31.765z M42.998,39.808c0,0.509,0.193,0.91,0.583,1.193
		c0.387,0.287,0.852,0.431,1.393,0.431c0.539,0,1-0.144,1.381-0.431c0.379-0.286,0.568-0.684,0.568-1.193
		c0-0.509-0.189-0.902-0.568-1.181c-0.381-0.278-0.843-0.417-1.381-0.417c-0.541,0-1.003,0.139-1.393,0.417
		C43.192,38.905,42.998,39.298,42.998,39.808z"/>
	<path fill="#1642B1" d="M15.226,47.507l5.771-0.559v24.87l-5.402,0.56v-2.58h-0.075c-0.543,0.955-1.301,1.621-2.276,2.004
		c-0.974,0.384-2.015,0.576-3.125,0.576c-1.356,0-2.628-0.242-3.812-0.733c-1.184-0.489-2.206-1.157-3.069-2.007
		c-0.865-0.848-1.549-1.836-2.054-2.964c-0.506-1.131-0.759-2.333-0.759-3.611c0-1.303,0.24-2.549,0.722-3.737
		c0.481-1.185,1.147-2.222,1.999-3.121c0.851-0.894,1.875-1.612,3.071-2.147c1.196-0.533,2.497-0.799,3.903-0.799
		c0.912,0,1.832,0.15,2.758,0.451c0.924,0.305,1.708,0.756,2.349,1.362v-7.569h-0.001V47.507z M6.196,62.821
		c0,0.627,0.117,1.225,0.354,1.796c0.233,0.568,0.56,1.064,0.98,1.481c0.418,0.421,0.912,0.756,1.479,1.014
		c0.568,0.258,1.172,0.384,1.812,0.384c0.643,0,1.246-0.129,1.812-0.384c0.568-0.258,1.061-0.593,1.48-1.014
		c0.419-0.417,0.745-0.91,0.979-1.481c0.234-0.57,0.352-1.167,0.352-1.796c0-0.628-0.117-1.228-0.352-1.796
		c-0.235-0.57-0.56-1.063-0.979-1.484c-0.418-0.42-0.913-0.753-1.48-1.013c-0.567-0.255-1.171-0.382-1.812-0.382
		c-0.642,0-1.246,0.128-1.812,0.382c-0.568,0.26-1.061,0.593-1.479,1.013c-0.421,0.421-0.748,0.913-0.98,1.484
		C6.313,61.589,6.196,62.192,6.196,62.821z"/>
	<path fill="#1642B1" d="M39.533,66.935l-1.407,4.887h-16.39l8.694-13.467h-7.216l1.148-4.535h14.91l-8.399,13.115H39.533z"/>
	<path fill="#1642B1" d="M48.189,48.899l-3.7,3.421l-4.18-2.86l3.624-3.489L48.189,48.899z M47.338,71.537l-5.771,0.561v-18
		l5.771-0.558V71.537z"/>
	<path fill="#1642B1" d="M56.846,66.202c0.345,0.465,0.808,0.794,1.386,0.996c0.579,0.195,1.153,0.295,1.723,0.295
		c1.032,0,2.017-0.199,2.941-0.596c0.923-0.394,1.782-0.896,2.569-1.498l3.035,4.185c-1.261,0.816-2.604,1.481-4.033,2.006
		c-1.431,0.524-2.972,0.786-4.623,0.786c-1.528,0-2.916-0.282-4.163-0.853c-1.246-0.568-2.324-1.298-3.237-2.181
		c-0.912-0.88-1.615-1.876-2.109-2.979c-0.493-1.103-0.74-2.206-0.74-3.297c0-1.324,0.264-2.588,0.795-3.785
		c0.529-1.198,1.244-2.237,2.146-3.123c0.901-0.883,1.955-1.586,3.163-2.11c1.207-0.524,2.503-0.786,3.884-0.786
		c0.986,0,1.956,0.127,2.908,0.382c0.949,0.26,1.843,0.627,2.68,1.117c0.841,0.488,1.592,1.071,2.261,1.742
		c0.665,0.675,1.216,1.431,1.664,2.269L56.846,66.202z M62.175,58.527c-0.297-0.301-0.673-0.5-1.128-0.594
		c-0.457-0.092-0.932-0.142-1.424-0.142c-0.643,0-1.234,0.131-1.776,0.383c-0.541,0.26-1.011,0.597-1.409,1.013
		c-0.396,0.42-0.709,0.906-0.943,1.445c-0.234,0.55-0.352,1.112-0.352,1.693v0.626L62.175,58.527z"/>
	<path fill="#1642B1" d="M75.643,55.982h0.073c0.74-1.049,1.556-1.761,2.444-2.145c0.886-0.383,1.727-0.575,2.515-0.575
		c1.305,0,2.405,0.187,3.291,0.557c0.886,0.378,1.603,0.9,2.146,1.569c0.539,0.676,0.93,1.479,1.164,2.407
		c0.231,0.93,0.351,1.957,0.351,3.072v10.675l-5.771,0.559V61.25c0-1.044-0.264-1.823-0.795-2.335
		c-0.531-0.51-1.225-0.765-2.088-0.765c-0.865,0-1.561,0.255-2.09,0.765c-0.532,0.512-0.795,1.291-0.795,2.335v10.29l-5.771,0.559
		V53.819l5.326-0.558V55.982L75.643,55.982z"/>
	<path fill="#1642B1" d="M88.906,70.151l2.047-1.902l2.052,1.902l-2.052,1.897L88.906,70.151z"/>
	<path fill="#1642B1" d="M96.352,74.594L93.62,74.86V63.294l2.556-0.265v1.558h0.037c0.243-0.488,0.621-0.869,1.129-1.143
		c0.51-0.273,1.04-0.415,1.605-0.415c0.653,0,1.256,0.134,1.804,0.398c0.548,0.264,1.02,0.608,1.41,1.036
		c0.388,0.431,0.695,0.924,0.91,1.481c0.218,0.556,0.325,1.126,0.325,1.711c0,0.582-0.129,1.142-0.38,1.67
		c-0.253,0.529-0.59,1.002-1.009,1.411c-0.419,0.415-0.91,0.739-1.462,0.982c-0.558,0.241-1.139,0.364-1.739,0.364
		c-0.227,0-0.451-0.017-0.686-0.043c-0.23-0.029-0.458-0.08-0.675-0.153c-0.217-0.08-0.417-0.18-0.605-0.307
		c-0.187-0.128-0.338-0.283-0.451-0.473H96.35L96.352,74.594L96.352,74.594L96.352,74.594z M96.215,67.555
		c0,0.274,0.055,0.545,0.168,0.808c0.107,0.266,0.265,0.503,0.462,0.712c0.2,0.209,0.438,0.38,0.708,0.505
		c0.274,0.124,0.57,0.189,0.888,0.189c0.314,0,0.61-0.065,0.886-0.189c0.271-0.127,0.507-0.296,0.709-0.505
		c0.197-0.206,0.354-0.443,0.464-0.712c0.106-0.264,0.164-0.533,0.164-0.808c0-0.272-0.056-0.545-0.164-0.81
		c-0.11-0.266-0.267-0.5-0.464-0.71c-0.202-0.207-0.438-0.38-0.709-0.502c-0.275-0.13-0.571-0.19-0.886-0.19
		c-0.317,0-0.613,0.061-0.888,0.19c-0.271,0.127-0.508,0.292-0.708,0.502c-0.198,0.205-0.354,0.442-0.462,0.71
		C96.269,67.01,96.215,67.282,96.215,67.555z"/>
	<path fill="#1642B1" d="M107.2,60.039v11.647l-2.735,0.265V60.302L107.2,60.039z"/>
	<path fill="#FFA500" d="M78.915,32.31c0,0-2.148,0.637-2.75,0.887c-0.499,0.213-2.553-0.471-3.468-1.417
		c-1.397-1.432-2.031-1.708-2.878-3.401c-0.844-1.69-1.114-3.432-3.276-4.934c-0.68-1.168-2.145-4.636-0.568-5.508
		c1.055-0.585,2.613-0.74,3.118-0.636c0.317-0.113,1.789-0.743,3.787-0.196c1.992,0.558,3.908,6.208,4.295,8.646
		c0.396,2.439,1.993,5.725,1.993,5.725S79.556,31.786,78.915,32.31"/>
	<path fill="#FFA500" d="M54.184,32.636c0,0,0.744-4.337,5.243-3.72c3.026,0.405,3.984,1.311,3.984,1.311s1.948,0.557,2.943,1.462
		c0.562,0.507,1.796,1.247,1.982,2.077c0.689,0.631,3.738,2.492,3.146,5.082c-0.232,1.04-4.343,0.98-4.343,0.98
		s-3.199-2.296-10.753-2.661C54.15,37.057,52.933,33.7,54.184,32.636"/>
	<path fill="#FFA500" d="M60.969,42.551c0,0,7.513-1.296,7.031,2.148c0.678,2.59,0.031,3.074,0.031,3.074s-0.427,0.994-4.64,1.574
		c-1.461,0.202-3.457,0.877-3.457,0.877s-2.953,0.709-4.373-2.174c-0.479-1.374-0.728-2.681-0.728-2.681
		S55.381,42.118,60.969,42.551"/>
	<path fill="#FFA500" d="M93.143,49.352c0,0,0.383-2.265,2.845-0.512c1.062,0.6,1.934,2.726,1.934,2.726s3.404,1.753,3.716,3.516
		c0.163,0.913-1.797,2.777-1.797,2.777s-1.374,1.62-3.615,1.183c-2.251-0.439-5.757-6.165-5.757-6.165S88.876,50.783,93.143,49.352"
		/>
	<path fill="#FFA500" d="M98.116,45.543c0,0-1.51-0.28-0.656-2.541c0.856-2.254,1.228-2.573,2.603-3.011
		c1.366-0.428,9.302-1.257,10.449-0.614c0.494,0.284,2.388,0.378,2.678,3.845c0.161,2.054-4.496,2.899-4.496,2.899
		s-2.512,0.62-5.444-0.173C100.315,45.136,98.116,45.543,98.116,45.543"/>
	<path fill="#FFA500" d="M94.879,34.721c0,0-2.013-1.168,0.782-4.662c2.194-1.372,3.929-2.372,7.765-7.662
		c3.123-2.154,4.988-0.097,5.023,0.172c0.038,0.271,3.213,1.232,1.948,5.119c-0.738,2.272-6.504,5.511-6.504,5.511
		s-5.012,1.105-5.306,1.352C98.276,34.808,95.272,35.158,94.879,34.721"/>
	<path fill="#FFA500" d="M83.532,25.121c0,0,0.28,4.894,5.033,4.872c3.418-0.031,3.407-5.618,3.407-5.618s-0.552-4.579,1.988-8.758
		c1.537-2.524-1.103-5.858-2.56-5.212c-0.01-0.308-2.376-0.634-5.67,1.475c-2.839,0.424-2.287,2.004-2.299,2.729
		C83.426,15.336,84.987,19.572,83.532,25.121"/>
	<path fill="#FFA500" d="M95.272,40.823c-1.272-0.792-2.304-3.955-2.304-3.955s-0.607-2.505-2.738-3.461
		c-8.814-3.937-10.681,0.854-10.681,0.854s-2.205-0.425-6.166,3.357c-3.953,3.797-1.144,8.972-0.816,10.139
		c0.11,0.397,0.568,1.026,0.944,1.288c1.4,0.983,1.419,0.93,2.146,1.155c1.135,0.353,3.807,1.19,6.969,1.303
		c0.521,0.02,2.299-0.141,3.073-0.312c3.028-0.669,3.668-0.658,5.653-2.559C93.101,46.954,96.552,41.621,95.272,40.823z
		 M83.733,47.157c-1.592,0.35-5.862-1.012-5.862-1.012s-1.611-0.329-1.095-4.435c0.215-1.718,3.335-2.844,3.335-2.844
		s3.868-0.875,3.923-2.952c0,0,2.524-0.514,3.968,2.596c1.448,3.115,1.91,2.67,1.91,2.67s0.535,2.592-2.612,4.756
		C86.732,46.325,84.797,46.922,83.733,47.157z"/>
</g>
</svg>
