<svg xmlns="http://www.w3.org/2000/svg" height="751.838" width="1449.3"><defs><clipPath id="a"><path d="M0 601.47h1159.442V0H0v601.47z"/></clipPath></defs><g clip-path="url(#a)" transform="matrix(1.25 0 0 -1.25 0 751.837)"><path d="M198.418 144.337c0 11.006-3.34 19.922-10.016 26.746-6.679 6.824-15.375 10.236-26.086 10.236-10.862 0-19.667-3.451-26.416-10.346-6.753-6.9-10.126-15.78-10.126-26.636 0-10.862 3.373-19.741 10.126-26.637 6.75-6.9 15.554-10.346 26.416-10.346 10.711 0 19.407 3.447 26.086 10.346 6.676 6.896 10.016 15.775 10.016 26.637m90.916 211.549V30.306l-85.633-7.264v26.196c-8.66-8.66-18.456-15.19-29.387-19.591-10.936-4.403-23.08-6.605-36.433-6.605-30.967 0-56.354 11.189-76.167 33.57-19.812 22.379-29.717 51.328-29.717 86.844 0 35.662 10.197 64.72 30.598 87.173 20.397 22.454 46.74 33.68 79.03 33.68 12.326 0 23.223-1.578 32.69-4.732 9.464-3.157 17.5-7.89 24.103-14.198V347.74l90.916 8.145z" fill="#357abb"/><path d="M397.15 107.794c0-6.604 1.906-11.853 5.724-15.739 3.814-3.891 8.95-5.834 15.409-5.834 6.015 0 11.078 2.052 15.189 6.164 4.108 4.107 6.164 9.246 6.164 15.409 0 6.456-1.981 11.629-5.944 15.52-3.962 3.887-9.1 5.834-15.409 5.834-6.312 0-11.412-1.947-15.3-5.834-3.89-3.891-5.833-9.064-5.833-15.52m-67.581 87.174l17.17 62.958c16.141 3.227 31.221 5.614 45.238 7.155 14.013 1.54 26.891 2.311 38.633 2.311 36.103 0 61.638-6.349 76.607-19.042 14.97-12.696 22.454-34.231 22.454-64.61V30.747l-85.632-6.604v25.976c-10.275-8.805-20.548-15.338-30.819-19.592-10.275-4.254-20.841-6.384-31.699-6.384-23.043 0-41.975 7.594-56.795 22.784-14.825 15.189-22.234 34.743-22.234 58.666 0 22.745 7.666 41.2 23.004 55.364 15.335 14.16 35.332 21.242 59.987 21.242 9.537 0 18.746-1.358 27.627-4.072 8.877-2.717 17.572-6.862 26.086-12.437v13.428c0 9.83-3.451 17.095-10.346 21.793-6.9 4.695-17.611 7.045-32.14 7.045-8.954 0-18.932-1.066-29.938-3.192-11.007-2.13-23.41-5.394-37.203-9.796" fill="#f69220"/><path d="M546.295 23.042v235.544l83.431 7.485V231.95c8.217 11.887 17.941 20.874 29.168 26.967 11.227 6.088 23.735 9.135 37.532 9.135 10.567 0 20.253-2.091 29.06-6.274 8.805-4.182 17.02-10.531 24.654-19.041 7.486 8.51 15.922 14.859 25.316 19.041 9.39 4.183 20.177 6.274 32.36 6.274 23.334 0 41.2-7.229 53.603-21.683 12.399-14.457 18.6-35.187 18.6-62.188V31.628l-91.136-8.586v142.647c0 6.016-1.32 10.677-3.963 13.979-2.64 3.302-6.457 4.953-11.445 4.953-4.844 0-8.586-1.651-11.227-4.953-2.642-3.302-3.962-7.963-3.962-13.979V31.628l-90.256-8.586v142.647c0 6.016-1.32 10.677-3.962 13.979-2.642 3.302-6.46 4.953-11.447 4.953-4.843 0-8.585-1.651-11.227-4.953-2.641-3.302-3.963-7.963-3.963-13.979V31.628l-91.135-8.586zM915.386 25.464v235.21l90.916 7.378V32.17l-90.916-6.707z" fill="#357abb"/><path d="M904.915 388.733s-11.532-9.047-14.58-12.016c-2.514-2.49-16.65-3.27-24.502.278-11.929 5.346-16.434 5.504-25.676 13.76-9.188 8.252-15.026 18.194-31.79 22.116-6.95 5.472-24.189 23.037-16.705 32.134 4.99 6.091 14.09 10.775 17.404 11.365 1.667 1.457 9.092 8.822 22.576 10.304 13.446 1.4 38.668-28.343 46.901-42.235 8.266-13.876 25.89-30.02 25.89-30.02s3.114-.957.482-5.686M755.317 327.264s-5.91 28.161 22.935 35.233c19.383 4.821 27.408 1.61 27.408 1.61s13.174 1.314 21.399-1.795c4.634-1.733 13.906-3.277 17.044-7.863 5.715-2.19 28.717-6.17 31.335-23.343 1.103-6.875-24.034-16.41-24.034-16.41s-24.965 6.282-71.79-9.683c-13.864-4.726-29.33 12.768-24.297 22.251M1032.439 319.324s-3.142 14.718 16.03 9.976c7.905-1.108 18.323-11.923 18.323-11.923s24.909-2.477 31.059-12.443c3.192-5.168-4.245-21.206-4.245-21.206s-4.464-13.176-19.146-15.885c-14.748-2.735-49.837 23.643-49.837 23.643s-14.711 8.886 7.816 27.838M1053.493 354.455s-9.854-1.93-10.087 13.865c-.202 15.767 1.272 18.61 8.567 24.577 7.274 5.886 53.533 30.02 62.074 28.866 3.672-.539 15.433 3.457 25.521-16.936 5.945-12.106-20.358-28.453-20.358-28.453s-13.783-9.823-33.538-12.027c-19.783-2.12-32.179-9.892-32.179-9.892M1007.781 412.475s-15.04 2.269-6.46 30.228c10.022 13.612 18.174 23.872 28.77 65.27 13.81 20.603 30.097 12.584 30.971 11.028.886-1.574 22.488.24 24.158-26.44.97-15.611-26.3-49.171-26.3-49.171s-27.813-18.776-29.004-20.981c-1.266-2.278-18.706-11.631-22.135-9.934M915.689 443.559s13.47-29.084 42.32-17.515c20.71 8.418 7.219 42.35 7.219 42.35s-14.372 26.529-8.978 58.044c3.278 19.045-20.805 32.96-28.1 25.535-.788 1.863-15.984-1.862-30.927-22.603-16.224-9.393-9.083-17.685-7.396-22.122 1.693-4.452 21.374-26.461 25.862-63.69M969.9 310.045c-8.833-5.953-38.079-7.941-38.079-7.941s-10.578-1.874-17.32 24.332c-2.816 10.956 13.44 25.304 13.44 25.304s21.43 14.627 16.751 27.39c0 0 14.127 9.206 30.384-6.236 16.29-15.465 18.02-11.653 18.02-11.653s9.485-14.477-4.439-35.203c-2.5-3.722-12.834-12.002-18.757-15.993m54.94 66.279c-9.637 1.753-23.523 18.493-23.523 18.493s-9.704 13.785-24.96 14.467c-63.062 2.745-62.9-30.883-62.9-30.883s-14.417-2.72-29.408-35.245c-14.907-32.601 14.66-57.316 19.424-63.628 1.624-2.141 5.923-4.851 8.849-5.558 10.885-2.63 10.85-2.241 15.823-1.859 7.734.593 26.015 1.909 45.51 8.837 3.2 1.135 13.624 6.389 17.922 9.293 16.804 11.342 20.727 12.814 28.213 29.14 6.614 14.433 14.758 55.165 5.05 56.943" fill="#f69220"/></g></svg>