<?xml version="1.0" encoding="utf-8"?>
<!-- Generator: Adobe Illustrator 16.0.0, SVG Export Plug-In . SVG Version: 6.00 Build 0)  -->
<!DOCTYPE svg PUBLIC "-//W3C//DTD SVG 1.1//EN" "http://www.w3.org/Graphics/SVG/1.1/DTD/svg11.dtd">
<svg version="1.1" id="Layer_1" xmlns="http://www.w3.org/2000/svg" xmlns:xlink="http://www.w3.org/1999/xlink" x="0px" y="0px"
	 width="113.387px" height="85.039px" viewBox="0 0 113.387 85.039" enable-background="new 0 0 113.387 85.039"
	 xml:space="preserve">
<g>
	<g>
		<g>
			<path fill="#1D1D1B" d="M74.014,38.639h-1.337v8.816h1.337c1.654,0,2.449-0.821,2.449-4.408
				C76.464,39.414,75.669,38.639,74.014,38.639z"/>
			<g>
				<path fill="#1D1D1B" d="M101.79,30.334H63.657c0.075,0.17,0.156,0.336,0.229,0.508c1.568,3.703,2.361,7.629,2.361,11.678
					c0,4.05-0.793,7.976-2.361,11.676c-0.199,0.471-0.41,0.934-0.632,1.392h38.536c0,0,4.403,0,4.403-4.405V34.736
					C106.193,34.736,106.193,30.334,101.79,30.334z M74.053,50.389h-5.159V35.699h5.159c4.188,0,6.397,2.061,6.397,7.346
					S78.239,50.389,74.053,50.389z M94.003,50.205c0,0-0.758,0.186-2.452,0.186c-1.572,0-2.47-0.186-2.47-0.186l-2.632-6.71
					c-0.76-2.04-1.097-3.834-1.097-3.834h-0.102c0,0,0.24,1.753,0.24,4.059v6.485c0,0-0.558,0.186-1.654,0.186
					c-1.077,0-1.573-0.186-1.573-0.186V35.884c0,0,0.815-0.185,2.509-0.185c1.677,0,2.41,0.185,2.41,0.185l2.531,6.632
					c0.72,1.978,1.156,4.202,1.156,4.202h0.082c0,0-0.201-2.184-0.201-4.448v-6.387c0,0,0.681-0.185,1.655-0.185
					c1.037,0,1.597,0.185,1.597,0.185V50.205z M100.06,50.205c0,0-0.798,0.186-1.893,0.186c-1.196,0-1.894-0.186-1.894-0.186h0.002
					V35.884c0,0,0.756-0.185,1.874-0.185c1.133,0,1.91,0.185,1.91,0.185V50.205z"/>
			</g>
		</g>
		<linearGradient id="SVGID_1_" gradientUnits="userSpaceOnUse" x1="35.3352" y1="70.6602" x2="35.3352" y2="14.3804">
			<stop  offset="0" style="stop-color:#F10400"/>
			<stop  offset="0.1995" style="stop-color:#C00C05"/>
			<stop  offset="0.3315" style="stop-color:#A41008"/>
			<stop  offset="0.5546" style="stop-color:#CC0A04"/>
			<stop  offset="0.7403" style="stop-color:#F10400"/>
			<stop  offset="1" style="stop-color:#AF0F0A"/>
		</linearGradient>
		<path fill="url(#SVGID_1_)" d="M7.193,42.52c0,15.539,12.601,28.14,28.14,28.14c15.543,0,28.144-12.602,28.144-28.14
			c0-15.543-12.601-28.14-28.144-28.14C19.794,14.38,7.193,26.975,7.193,42.52"/>
		<path fill="#FFFFFF" d="M35.443,70.723c1.05,0,2.086-0.062,3.106-0.175c1.917-19.53,17.475-24.453,17.69-41.233
			c0.071-2.086-0.072-4.105-0.473-6.184c-0.114-0.12-0.227-0.243-0.343-0.36h-34.8c0,0-0.687,2.208-0.687,5.477
			c0,3.349,0.687,5.709,0.687,5.709h21.763c-3.398,10.466-15.125,16.332-17.187,34.834C28.376,70.033,31.828,70.723,35.443,70.723z"
			/>
	</g>
</g>
</svg>
